<svg width="1000" height="800" xmlns="http://www.w3.org/2000/svg">
<style>circle { fill: black; } text { font-family: sans-serif; font-size: 10px; }</style>
<g transform="translate(100, 100)">
<rect x="-90" y="-90" width="180" height="180" fill="none" stroke="blue"/>
<text x="-85" y="-75">IDX 0</text>
<circle cx="-120.35" cy="282.52" r="1.5"/>
<circle cx="-116.29" cy="283.29" r="1.5"/>
<circle cx="-127.07" cy="281.24" r="1.5"/>
<circle cx="-84.93" cy="289.24" r="1.5"/>
<circle cx="-82.31" cy="289.73" r="1.5"/>
<circle cx="-130.08" cy="280.67" r="1.5"/>
<circle cx="-128.00" cy="281.06" r="1.5"/>
<circle cx="-123.84" cy="281.85" r="1.5"/>
</g>
<g transform="translate(300, 100)">
<rect x="-90" y="-90" width="180" height="180" fill="none" stroke="blue"/>
<text x="-85" y="-75">IDX 1</text>
<circle cx="-181.26" cy="256.52" r="1.5"/>
<circle cx="-177.44" cy="257.76" r="1.5"/>
<circle cx="-188.46" cy="254.18" r="1.5"/>
<circle cx="-147.78" cy="267.41" r="1.5"/>
<circle cx="-145.73" cy="268.07" r="1.5"/>
<circle cx="-190.33" cy="253.57" r="1.5"/>
<circle cx="-184.48" cy="255.47" r="1.5"/>
</g>
<g transform="translate(500, 100)">
<rect x="-90" y="-90" width="180" height="180" fill="none" stroke="blue"/>
<text x="-85" y="-75">IDX 2</text>
<circle cx="-240.25" cy="215.07" r="1.5"/>
<circle cx="-236.76" cy="216.81" r="1.5"/>
<circle cx="-247.59" cy="211.38" r="1.5"/>
<circle cx="-209.58" cy="230.46" r="1.5"/>
<circle cx="-208.10" cy="231.21" r="1.5"/>
<circle cx="-243.12" cy="213.62" r="1.5"/>
</g>
<g transform="translate(700, 100)">
<rect x="-90" y="-90" width="180" height="180" fill="none" stroke="blue"/>
<text x="-85" y="-75">IDX 3</text>
<circle cx="-295.62" cy="167.80" r="1.5"/>
<circle cx="-292.52" cy="169.77" r="1.5"/>
<circle cx="-303.44" cy="162.85" r="1.5"/>
<circle cx="-268.14" cy="185.23" r="1.5"/>
<circle cx="-267.45" cy="185.66" r="1.5"/>
</g>
<g transform="translate(900, 100)">
<rect x="-90" y="-90" width="180" height="180" fill="none" stroke="blue"/>
<text x="-85" y="-75">IDX 4</text>
<circle cx="-349.10" cy="86.23" r="1.5"/>
<circle cx="-359.13" cy="76.99" r="1.5"/>
<circle cx="-329.27" cy="104.51" r="1.5"/>
<circle cx="-329.32" cy="104.46" r="1.5"/>
</g>
<g transform="translate(100, 300)">
<rect x="-90" y="-90" width="180" height="180" fill="none" stroke="blue"/>
<text x="-85" y="-75">IDX 5</text>
<circle cx="-402.75" cy="-29.71" r="1.5"/>
<circle cx="-379.37" cy="0.43" r="1.5"/>
<circle cx="-360.65" cy="24.55" r="1.5"/>
<circle cx="-380.20" cy="-0.65" r="1.5"/>
</g>
<g transform="translate(300, 300)">
<rect x="-90" y="-90" width="180" height="180" fill="none" stroke="blue"/>
<text x="-85" y="-75">IDX 6</text>
<circle cx="-394.02" cy="-51.75" r="1.5"/>
<circle cx="-376.50" cy="-25.28" r="1.5"/>
<circle cx="-395.12" cy="-53.41" r="1.5"/>
<circle cx="-239.47" cy="181.74" r="1.5"/>
<circle cx="-239.47" cy="181.74" r="1.5"/>
<circle cx="-334.81" cy="37.71" r="1.5"/>
<circle cx="-329.36" cy="45.95" r="1.5"/>
<circle cx="-324.59" cy="53.15" r="1.5"/>
<circle cx="-320.00" cy="60.09" r="1.5"/>
<circle cx="-316.08" cy="66.01" r="1.5"/>
</g>
<g transform="translate(500, 300)">
<rect x="-90" y="-90" width="180" height="180" fill="none" stroke="blue"/>
<text x="-85" y="-75">IDX 7</text>
<circle cx="-290.88" cy="-315.23" r="1.5"/>
<circle cx="-290.79" cy="-318.28" r="1.5"/>
<circle cx="-302.31" cy="74.23" r="1.5"/>
<circle cx="-302.39" cy="77.11" r="1.5"/>
<circle cx="-302.55" cy="82.63" r="1.5"/>
<circle cx="-299.13" cy="-33.88" r="1.5"/>
<circle cx="-299.42" cy="-24.32" r="1.5"/>
<circle cx="-299.75" cy="-12.90" r="1.5"/>
<circle cx="-299.19" cy="-31.84" r="1.5"/>
<circle cx="-299.18" cy="-32.20" r="1.5"/>
<circle cx="-299.84" cy="-10.00" r="1.5"/>
<circle cx="-300.01" cy="-4.04" r="1.5"/>
<circle cx="-299.10" cy="-35.00" r="1.5"/>
<circle cx="-299.84" cy="-10.00" r="1.5"/>
<circle cx="-300.01" cy="-4.04" r="1.5"/>
<circle cx="-299.06" cy="-36.41" r="1.5"/>
<circle cx="-298.88" cy="-42.50" r="1.5"/>
<circle cx="-299.06" cy="-36.41" r="1.5"/>
<circle cx="-299.18" cy="-32.20" r="1.5"/>
<circle cx="-299.10" cy="-35.00" r="1.5"/>
<circle cx="-298.88" cy="-42.50" r="1.5"/>
<circle cx="-299.19" cy="-31.84" r="1.5"/>
<circle cx="-299.75" cy="-12.90" r="1.5"/>
<circle cx="-299.84" cy="-10.00" r="1.5"/>
<circle cx="-299.18" cy="-32.20" r="1.5"/>
<circle cx="-299.42" cy="-24.32" r="1.5"/>
<circle cx="-299.13" cy="-33.88" r="1.5"/>
<circle cx="-299.06" cy="-36.41" r="1.5"/>
<circle cx="-299.75" cy="-12.90" r="1.5"/>
<circle cx="-299.42" cy="-24.32" r="1.5"/>
<circle cx="-294.35" cy="-196.73" r="1.5"/>
<circle cx="-294.60" cy="-188.25" r="1.5"/>
<circle cx="-294.85" cy="-179.86" r="1.5"/>
<circle cx="-295.06" cy="-172.55" r="1.5"/>
<circle cx="-295.27" cy="-165.67" r="1.5"/>
<circle cx="-296.09" cy="-137.46" r="1.5"/>
<circle cx="-296.36" cy="-128.43" r="1.5"/>
<circle cx="-296.71" cy="-116.51" r="1.5"/>
<circle cx="-296.68" cy="-117.63" r="1.5"/>
<circle cx="-297.04" cy="-105.31" r="1.5"/>
<circle cx="-297.38" cy="-93.68" r="1.5"/>
<circle cx="-296.71" cy="-116.51" r="1.5"/>
</g>
<g transform="translate(700, 300)">
<rect x="-90" y="-90" width="180" height="180" fill="none" stroke="blue"/>
<text x="-85" y="-75">IDX 8</text>
<circle cx="-239.55" cy="190.42" r="1.5"/>
<circle cx="-237.99" cy="193.46" r="1.5"/>
<circle cx="-235.58" cy="198.16" r="1.5"/>
<circle cx="-288.14" cy="95.50" r="1.5"/>
<circle cx="-287.26" cy="97.20" r="1.5"/>
<circle cx="-287.49" cy="96.76" r="1.5"/>
<circle cx="-274.53" cy="122.07" r="1.5"/>
<circle cx="-289.00" cy="93.81" r="1.5"/>
<circle cx="-274.53" cy="122.07" r="1.5"/>
<circle cx="-289.29" cy="93.24" r="1.5"/>
<circle cx="-292.04" cy="87.87" r="1.5"/>
<circle cx="-289.29" cy="93.24" r="1.5"/>
<circle cx="-287.49" cy="96.76" r="1.5"/>
<circle cx="-289.00" cy="93.81" r="1.5"/>
<circle cx="-292.04" cy="87.87" r="1.5"/>
<circle cx="-287.26" cy="97.20" r="1.5"/>
<circle cx="-287.49" cy="96.76" r="1.5"/>
<circle cx="-288.14" cy="95.50" r="1.5"/>
<circle cx="-289.29" cy="93.24" r="1.5"/>
</g>
<g transform="translate(900, 300)">
<rect x="-90" y="-90" width="180" height="180" fill="none" stroke="blue"/>
<text x="-85" y="-75">IDX 9</text>
<circle cx="-291.08" cy="73.67" r="1.5"/>
<circle cx="-289.65" cy="78.49" r="1.5"/>
<circle cx="-288.40" cy="82.68" r="1.5"/>
</g>
<g transform="translate(100, 500)">
<rect x="-90" y="-90" width="180" height="180" fill="none" stroke="blue"/>
<text x="-85" y="-75">IDX 10</text>
<circle cx="-301.51" cy="12.91" r="1.5"/>
<circle cx="-300.69" cy="18.29" r="1.5"/>
<circle cx="-300.07" cy="22.34" r="1.5"/>
</g>
<g transform="translate(300, 500)">
<rect x="-90" y="-90" width="180" height="180" fill="none" stroke="blue"/>
<text x="-85" y="-75">IDX 11</text>
<circle cx="-303.10" cy="-48.84" r="1.5"/>
<circle cx="-302.77" cy="-42.77" r="1.5"/>
<circle cx="-302.57" cy="-39.17" r="1.5"/>
</g>
<g transform="translate(500, 500)">
<rect x="-90" y="-90" width="180" height="180" fill="none" stroke="blue"/>
<text x="-85" y="-75">IDX 12</text>
<circle cx="-166.15" cy="-262.66" r="1.5"/>
<circle cx="-170.46" cy="-257.97" r="1.5"/>
<circle cx="-172.73" cy="-255.49" r="1.5"/>
</g>
<g transform="translate(700, 500)">
<rect x="-90" y="-90" width="180" height="180" fill="none" stroke="blue"/>
<text x="-85" y="-75">IDX 13</text>
<circle cx="-291.20" cy="-110.85" r="1.5"/>
<circle cx="-291.85" cy="-103.70" r="1.5"/>
<circle cx="-289.16" cy="-133.42" r="1.5"/>
<circle cx="-289.78" cy="-126.61" r="1.5"/>
<circle cx="-290.04" cy="-123.68" r="1.5"/>
</g>
<g transform="translate(900, 500)">
<rect x="-90" y="-90" width="180" height="180" fill="none" stroke="blue"/>
<text x="-85" y="-75">IDX 14</text>
<circle cx="-271.89" cy="-167.15" r="1.5"/>
<circle cx="-273.32" cy="-160.18" r="1.5"/>
<circle cx="-266.89" cy="-191.42" r="1.5"/>
<circle cx="-268.36" cy="-184.27" r="1.5"/>
<circle cx="-268.86" cy="-181.85" r="1.5"/>
</g>
<g transform="translate(100, 700)">
<rect x="-90" y="-90" width="180" height="180" fill="none" stroke="blue"/>
<text x="-85" y="-75">IDX 15</text>
<circle cx="36.35" cy="-2.18" r="1.5"/>
<circle cx="36.35" cy="-2.18" r="1.5"/>
<circle cx="36.35" cy="-2.18" r="1.5"/>
<circle cx="36.34" cy="-2.19" r="1.5"/>
<circle cx="36.34" cy="-2.19" r="1.5"/>
<circle cx="36.34" cy="-2.19" r="1.5"/>
<circle cx="36.34" cy="-2.19" r="1.5"/>
<circle cx="36.34" cy="-2.19" r="1.5"/>
<circle cx="36.34" cy="-2.19" r="1.5"/>
<circle cx="36.34" cy="-2.19" r="1.5"/>
<circle cx="36.34" cy="-2.19" r="1.5"/>
<circle cx="36.34" cy="-2.19" r="1.5"/>
<circle cx="36.34" cy="-2.19" r="1.5"/>
<circle cx="36.34" cy="-2.19" r="1.5"/>
<circle cx="36.34" cy="-2.19" r="1.5"/>
<circle cx="160.45" cy="-310.19" r="1.5"/>
<circle cx="153.76" cy="-309.79" r="1.5"/>
<circle cx="190.60" cy="-312.00" r="1.5"/>
<circle cx="182.22" cy="-311.50" r="1.5"/>
<circle cx="181.20" cy="-311.44" r="1.5"/>
<circle cx="74.20" cy="-305.00" r="1.5"/>
<circle cx="66.92" cy="-304.57" r="1.5"/>
<circle cx="-18.96" cy="39.33" r="1.5"/>
<circle cx="-21.41" cy="49.48" r="1.5"/>
<circle cx="54.59" cy="-38.91" r="1.5"/>
<circle cx="65.95" cy="-36.18" r="1.5"/>
<circle cx="67.94" cy="-35.69" r="1.5"/>
<circle cx="54.59" cy="-38.91" r="1.5"/>
<circle cx="79.16" cy="-32.89" r="1.5"/>
<circle cx="79.16" cy="-32.89" r="1.5"/>
<circle cx="-11.12" cy="-53.17" r="1.5"/>
<circle cx="-25.80" cy="-56.01" r="1.5"/>
<circle cx="-39.06" cy="-58.46" r="1.5"/>
<circle cx="-22.83" cy="-55.44" r="1.5"/>
<circle cx="-57.00" cy="-61.61" r="1.5"/>
<circle cx="-40.29" cy="-58.68" r="1.5"/>
<circle cx="68.56" cy="-35.54" r="1.5"/>
<circle cx="77.15" cy="-33.40" r="1.5"/>
<circle cx="-2.38" cy="-51.42" r="1.5"/>
<circle cx="-15.38" cy="-54.01" r="1.5"/>
<circle cx="61.06" cy="30.59" r="1.5"/>
<circle cx="61.06" cy="30.59" r="1.5"/>
<circle cx="61.06" cy="30.59" r="1.5"/>
<circle cx="61.06" cy="30.59" r="1.5"/>
<circle cx="59.93" cy="31.02" r="1.5"/>
<circle cx="59.93" cy="31.02" r="1.5"/>
<circle cx="59.93" cy="31.02" r="1.5"/>
<circle cx="59.93" cy="31.02" r="1.5"/>
<circle cx="73.30" cy="25.98" r="1.5"/>
<circle cx="80.38" cy="23.26" r="1.5"/>
<circle cx="-29.39" cy="61.61" r="1.5"/>
<circle cx="-16.35" cy="57.47" r="1.5"/>
<circle cx="-51.05" cy="73.25" r="1.5"/>
</g>
<g transform="translate(300, 700)">
<rect x="-90" y="-90" width="180" height="180" fill="none" stroke="blue"/>
<text x="-85" y="-75">IDX 16</text>
<circle cx="27.66" cy="-32.23" r="1.5"/>
<circle cx="27.66" cy="-32.23" r="1.5"/>
<circle cx="27.66" cy="-32.23" r="1.5"/>
<circle cx="27.66" cy="-32.23" r="1.5"/>
<circle cx="27.66" cy="-32.23" r="1.5"/>
<circle cx="27.66" cy="-32.23" r="1.5"/>
<circle cx="27.66" cy="-32.23" r="1.5"/>
<circle cx="27.66" cy="-32.23" r="1.5"/>
<circle cx="27.66" cy="-32.23" r="1.5"/>
<circle cx="27.66" cy="-32.24" r="1.5"/>
<circle cx="27.66" cy="-32.24" r="1.5"/>
<circle cx="27.66" cy="-32.24" r="1.5"/>
<circle cx="27.65" cy="-32.23" r="1.5"/>
<circle cx="27.65" cy="-32.23" r="1.5"/>
<circle cx="27.65" cy="-32.23" r="1.5"/>
<circle cx="-107.42" cy="-335.52" r="1.5"/>
<circle cx="-111.74" cy="-330.48" r="1.5"/>
<circle cx="-87.47" cy="-358.77" r="1.5"/>
<circle cx="-92.99" cy="-352.34" r="1.5"/>
<circle cx="-93.56" cy="-351.67" r="1.5"/>
<circle cx="-163.65" cy="-269.98" r="1.5"/>
<circle cx="-168.48" cy="-264.35" r="1.5"/>
<circle cx="19.02" cy="36.38" r="1.5"/>
<circle cx="24.58" cy="45.23" r="1.5"/>
<circle cx="13.89" cy="-70.80" r="1.5"/>
<circle cx="23.72" cy="-77.03" r="1.5"/>
<circle cx="25.45" cy="-78.11" r="1.5"/>
<circle cx="13.89" cy="-70.80" r="1.5"/>
<circle cx="35.23" cy="-84.19" r="1.5"/>
<circle cx="35.23" cy="-84.19" r="1.5"/>
<circle cx="-42.02" cy="-33.56" r="1.5"/>
<circle cx="-54.28" cy="-24.97" r="1.5"/>
<circle cx="-65.30" cy="-17.11" r="1.5"/>
<circle cx="-51.81" cy="-26.72" r="1.5"/>
<circle cx="40.55" cy="-87.45" r="1.5"/>
<circle cx="40.55" cy="-87.45" r="1.5"/>
<circle cx="40.55" cy="-87.45" r="1.5"/>
<circle cx="40.55" cy="-87.45" r="1.5"/>
<circle cx="-80.08" cy="-6.36" r="1.5"/>
<circle cx="-66.32" cy="-16.38" r="1.5"/>
<circle cx="25.99" cy="-78.45" r="1.5"/>
<circle cx="33.48" cy="-83.11" r="1.5"/>
<circle cx="45.65" cy="-90.56" r="1.5"/>
<circle cx="40.75" cy="-87.58" r="1.5"/>
<circle cx="-34.68" cy="-38.63" r="1.5"/>
<circle cx="-45.59" cy="-31.08" r="1.5"/>
<circle cx="68.32" cy="-27.10" r="1.5"/>
<circle cx="68.32" cy="-27.10" r="1.5"/>
<circle cx="68.32" cy="-27.10" r="1.5"/>
<circle cx="68.32" cy="-27.10" r="1.5"/>
<circle cx="67.84" cy="-26.00" r="1.5"/>
<circle cx="67.84" cy="-26.00" r="1.5"/>
<circle cx="67.84" cy="-26.00" r="1.5"/>
<circle cx="67.84" cy="-26.00" r="1.5"/>
<circle cx="73.48" cy="-39.07" r="1.5"/>
<circle cx="76.43" cy="-46.02" r="1.5"/>
<circle cx="27.71" cy="59.45" r="1.5"/>
<circle cx="33.82" cy="47.17" r="1.5"/>
<circle cx="12.80" cy="101.22" r="1.5"/>
<circle cx="20.93" cy="83.18" r="1.5"/>
</g>
<g transform="translate(500, 700)">
<rect x="-90" y="-90" width="180" height="180" fill="none" stroke="blue"/>
<text x="-85" y="-75">IDX 17</text>
<circle cx="42.68" cy="-17.88" r="1.5"/>
<circle cx="42.68" cy="-17.88" r="1.5"/>
<circle cx="42.68" cy="-17.88" r="1.5"/>
<circle cx="42.67" cy="-17.88" r="1.5"/>
<circle cx="42.67" cy="-17.88" r="1.5"/>
<circle cx="42.67" cy="-17.88" r="1.5"/>
<circle cx="42.67" cy="-17.88" r="1.5"/>
<circle cx="42.67" cy="-17.88" r="1.5"/>
<circle cx="42.67" cy="-17.88" r="1.5"/>
<circle cx="42.68" cy="-17.89" r="1.5"/>
<circle cx="42.68" cy="-17.89" r="1.5"/>
<circle cx="42.68" cy="-17.89" r="1.5"/>
<circle cx="42.67" cy="-17.88" r="1.5"/>
<circle cx="42.67" cy="-17.88" r="1.5"/>
<circle cx="42.67" cy="-17.88" r="1.5"/>
<circle cx="57.79" cy="-349.50" r="1.5"/>
<circle cx="51.24" cy="-346.76" r="1.5"/>
<circle cx="51.69" cy="-346.95" r="1.5"/>
<circle cx="86.28" cy="-361.44" r="1.5"/>
<circle cx="78.41" cy="-358.14" r="1.5"/>
<circle cx="77.68" cy="-357.84" r="1.5"/>
<circle cx="-21.82" cy="-316.14" r="1.5"/>
<circle cx="-28.74" cy="-313.24" r="1.5"/>
<circle cx="4.20" cy="39.57" r="1.5"/>
<circle cx="5.19" cy="49.99" r="1.5"/>
<circle cx="47.59" cy="-58.50" r="1.5"/>
<circle cx="59.14" cy="-59.65" r="1.5"/>
<circle cx="61.17" cy="-59.84" r="1.5"/>
<circle cx="47.59" cy="-58.50" r="1.5"/>
<circle cx="72.60" cy="-60.88" r="1.5"/>
<circle cx="72.60" cy="-60.88" r="1.5"/>
<circle cx="-19.03" cy="-50.30" r="1.5"/>
<circle cx="-33.86" cy="-48.11" r="1.5"/>
<circle cx="-47.24" cy="-46.02" r="1.5"/>
<circle cx="-30.86" cy="-48.56" r="1.5"/>
<circle cx="86.60" cy="-62.03" r="1.5"/>
<circle cx="78.79" cy="-61.40" r="1.5"/>
<circle cx="78.79" cy="-61.40" r="1.5"/>
<circle cx="78.79" cy="-61.40" r="1.5"/>
<circle cx="78.79" cy="-61.40" r="1.5"/>
<circle cx="-65.32" cy="-43.01" r="1.5"/>
<circle cx="-48.48" cy="-45.82" r="1.5"/>
<circle cx="61.80" cy="-59.90" r="1.5"/>
<circle cx="70.55" cy="-60.70" r="1.5"/>
<circle cx="84.72" cy="-61.88" r="1.5"/>
<circle cx="79.04" cy="-61.42" r="1.5"/>
<circle cx="-10.19" cy="-51.54" r="1.5"/>
<circle cx="-23.34" cy="-49.68" r="1.5"/>
<circle cx="76.65" cy="4.96" r="1.5"/>
<circle cx="76.65" cy="4.96" r="1.5"/>
<circle cx="76.65" cy="4.96" r="1.5"/>
<circle cx="76.65" cy="4.96" r="1.5"/>
<circle cx="75.73" cy="5.73" r="1.5"/>
<circle cx="75.73" cy="5.73" r="1.5"/>
<circle cx="75.73" cy="5.73" r="1.5"/>
<circle cx="75.73" cy="5.73" r="1.5"/>
<circle cx="86.60" cy="-3.41" r="1.5"/>
<circle cx="92.33" cy="-8.29" r="1.5"/>
<circle cx="1.58" cy="64.11" r="1.5"/>
<circle cx="12.57" cy="55.87" r="1.5"/>
<circle cx="-30.60" cy="94.82" r="1.5"/>
<circle cx="-15.18" cy="82.32" r="1.5"/>
</g>
<g transform="translate(700, 700)">
<rect x="-90" y="-90" width="180" height="180" fill="none" stroke="blue"/>
<text x="-85" y="-75">IDX 18</text>
<circle cx="47.58" cy="-34.77" r="1.5"/>
<circle cx="47.58" cy="-34.77" r="1.5"/>
<circle cx="47.58" cy="-34.77" r="1.5"/>
<circle cx="47.57" cy="-34.77" r="1.5"/>
<circle cx="47.57" cy="-34.77" r="1.5"/>
<circle cx="47.57" cy="-34.77" r="1.5"/>
<circle cx="47.57" cy="-34.77" r="1.5"/>
<circle cx="47.57" cy="-34.77" r="1.5"/>
<circle cx="47.57" cy="-34.77" r="1.5"/>
<circle cx="47.57" cy="-34.77" r="1.5"/>
<circle cx="47.57" cy="-34.77" r="1.5"/>
<circle cx="47.57" cy="-34.77" r="1.5"/>
<circle cx="47.57" cy="-34.77" r="1.5"/>
<circle cx="47.57" cy="-34.77" r="1.5"/>
<circle cx="47.57" cy="-34.77" r="1.5"/>
<circle cx="-15.16" cy="-360.50" r="1.5"/>
<circle cx="-21.13" cy="-356.14" r="1.5"/>
<circle cx="-20.39" cy="-356.68" r="1.5"/>
<circle cx="10.44" cy="-379.22" r="1.5"/>
<circle cx="3.43" cy="-374.09" r="1.5"/>
<circle cx="3.02" cy="-373.79" r="1.5"/>
<circle cx="-84.64" cy="-309.72" r="1.5"/>
<circle cx="-95.22" cy="-301.99" r="1.5"/>
<circle cx="-90.91" cy="-305.14" r="1.5"/>
<circle cx="-91.29" cy="-304.86" r="1.5"/>
<circle cx="-54.97" cy="-331.41" r="1.5"/>
<circle cx="23.56" cy="30.00" r="1.5"/>
<circle cx="26.89" cy="39.93" r="1.5"/>
<circle cx="42.70" cy="-75.25" r="1.5"/>
<circle cx="53.58" cy="-78.98" r="1.5"/>
<circle cx="55.49" cy="-79.63" r="1.5"/>
<circle cx="42.70" cy="-75.25" r="1.5"/>
<circle cx="66.26" cy="-83.21" r="1.5"/>
<circle cx="66.26" cy="-83.21" r="1.5"/>
<circle cx="-19.98" cy="-51.96" r="1.5"/>
<circle cx="-33.92" cy="-46.38" r="1.5"/>
<circle cx="-46.50" cy="-41.20" r="1.5"/>
<circle cx="-31.10" cy="-47.52" r="1.5"/>
<circle cx="79.46" cy="-87.47" r="1.5"/>
<circle cx="86.90" cy="-89.80" r="1.5"/>
<circle cx="72.10" cy="-85.11" r="1.5"/>
<circle cx="72.10" cy="-85.11" r="1.5"/>
<circle cx="72.10" cy="-85.11" r="1.5"/>
<circle cx="72.10" cy="-85.11" r="1.5"/>
<circle cx="-63.47" cy="-34.02" r="1.5"/>
<circle cx="-47.66" cy="-40.72" r="1.5"/>
<circle cx="56.08" cy="-79.83" r="1.5"/>
<circle cx="64.33" cy="-82.58" r="1.5"/>
<circle cx="77.69" cy="-86.91" r="1.5"/>
<circle cx="72.33" cy="-85.19" r="1.5"/>
<circle cx="-11.67" cy="-55.22" r="1.5"/>
<circle cx="-24.03" cy="-50.36" r="1.5"/>
<circle cx="-126.58" cy="-5.11" r="1.5"/>
<circle cx="108.13" cy="60.37" r="1.5"/>
<circle cx="116.63" cy="56.10" r="1.5"/>
<circle cx="116.46" cy="56.18" r="1.5"/>
<circle cx="108.13" cy="60.37" r="1.5"/>
<circle cx="62.01" cy="93.27" r="1.5"/>
<circle cx="64.45" cy="91.56" r="1.5"/>
<circle cx="57.32" cy="97.18" r="1.5"/>
<circle cx="54.58" cy="99.17" r="1.5"/>
<circle cx="46.73" cy="104.84" r="1.5"/>
<circle cx="43.89" cy="107.03" r="1.5"/>
<circle cx="67.70" cy="88.62" r="1.5"/>
<circle cx="69.84" cy="87.17" r="1.5"/>
<circle cx="85.68" cy="-20.26" r="1.5"/>
<circle cx="85.68" cy="-20.26" r="1.5"/>
<circle cx="85.68" cy="-20.26" r="1.5"/>
<circle cx="85.68" cy="-20.26" r="1.5"/>
<circle cx="84.98" cy="-19.30" r="1.5"/>
<circle cx="84.98" cy="-19.30" r="1.5"/>
<circle cx="84.98" cy="-19.30" r="1.5"/>
<circle cx="84.98" cy="-19.30" r="1.5"/>
<circle cx="93.31" cy="-30.63" r="1.5"/>
<circle cx="97.68" cy="-36.66" r="1.5"/>
<circle cx="26.57" cy="54.57" r="1.5"/>
<circle cx="35.38" cy="43.98" r="1.5"/>
<circle cx="117.33" cy="-33.69" r="1.5"/>
<circle cx="2.09" cy="92.15" r="1.5"/>
<circle cx="14.34" cy="76.29" r="1.5"/>
<circle cx="-24.04" cy="-122.66" r="1.5"/>
<circle cx="-24.04" cy="-122.66" r="1.5"/>
<circle cx="-24.04" cy="-122.66" r="1.5"/>
<circle cx="-24.04" cy="-122.66" r="1.5"/>
<circle cx="-24.67" cy="-122.03" r="1.5"/>
<circle cx="-24.67" cy="-122.03" r="1.5"/>
<circle cx="-24.67" cy="-122.03" r="1.5"/>
<circle cx="-24.67" cy="-122.03" r="1.5"/>
<circle cx="-74.57" cy="-82.90" r="1.5"/>
<circle cx="-76.65" cy="-81.35" r="1.5"/>
<circle cx="-89.30" cy="-73.90" r="1.5"/>
<circle cx="-92.21" cy="-71.88" r="1.5"/>
</g>
<g transform="translate(900, 700)">
<rect x="-90" y="-90" width="180" height="180" fill="none" stroke="blue"/>
<text x="-85" y="-75">IDX 19</text>
<circle cx="107.06" cy="-12.68" r="1.5"/>
<circle cx="107.06" cy="-12.68" r="1.5"/>
<circle cx="107.06" cy="-12.68" r="1.5"/>
<circle cx="107.06" cy="-12.68" r="1.5"/>
<circle cx="107.06" cy="-12.68" r="1.5"/>
<circle cx="107.06" cy="-12.68" r="1.5"/>
<circle cx="107.06" cy="-12.68" r="1.5"/>
<circle cx="107.06" cy="-12.68" r="1.5"/>
<circle cx="107.06" cy="-12.68" r="1.5"/>
<circle cx="107.06" cy="-12.68" r="1.5"/>
<circle cx="107.06" cy="-12.68" r="1.5"/>
<circle cx="107.06" cy="-12.68" r="1.5"/>
<circle cx="107.05" cy="-12.68" r="1.5"/>
<circle cx="107.05" cy="-12.68" r="1.5"/>
<circle cx="107.05" cy="-12.68" r="1.5"/>
<circle cx="-106.30" cy="12.59" r="1.5"/>
<circle cx="-106.30" cy="12.59" r="1.5"/>
<circle cx="-106.30" cy="12.59" r="1.5"/>
<circle cx="-106.30" cy="12.59" r="1.5"/>
<circle cx="-106.30" cy="12.59" r="1.5"/>
<circle cx="-106.30" cy="12.59" r="1.5"/>
<circle cx="-106.30" cy="12.59" r="1.5"/>
<circle cx="-106.30" cy="12.59" r="1.5"/>
<circle cx="-106.30" cy="12.59" r="1.5"/>
<circle cx="-106.30" cy="12.59" r="1.5"/>
<circle cx="-106.30" cy="12.59" r="1.5"/>
<circle cx="-106.30" cy="12.59" r="1.5"/>
<circle cx="55.74" cy="31.79" r="1.5"/>
<circle cx="53.56" cy="42.10" r="1.5"/>
<circle cx="-106.30" cy="12.59" r="1.5"/>
<circle cx="-106.30" cy="12.59" r="1.5"/>
<circle cx="-106.30" cy="12.59" r="1.5"/>
<circle cx="-106.30" cy="12.59" r="1.5"/>
<circle cx="121.24" cy="-50.17" r="1.5"/>
<circle cx="131.93" cy="-48.00" r="1.5"/>
<circle cx="133.79" cy="-47.61" r="1.5"/>
<circle cx="121.24" cy="-50.17" r="1.5"/>
<circle cx="57.39" cy="-60.92" r="1.5"/>
<circle cx="42.66" cy="-62.91" r="1.5"/>
<circle cx="-75.85" cy="-72.84" r="1.5"/>
<circle cx="-98.63" cy="-73.46" r="1.5"/>
<circle cx="-103.67" cy="-73.54" r="1.5"/>
<circle cx="-83.92" cy="-73.11" r="1.5"/>
<circle cx="29.19" cy="-64.58" r="1.5"/>
<circle cx="45.65" cy="-62.52" r="1.5"/>
<circle cx="-114.90" cy="-73.62" r="1.5"/>
<circle cx="-96.58" cy="-73.43" r="1.5"/>
<circle cx="10.75" cy="-66.64" r="1.5"/>
<circle cx="27.93" cy="-64.73" r="1.5"/>
<circle cx="134.36" cy="-47.49" r="1.5"/>
<circle cx="66.08" cy="-59.66" r="1.5"/>
<circle cx="53.13" cy="-61.51" r="1.5"/>
<circle cx="-60.68" cy="-72.18" r="1.5"/>
<circle cx="-83.21" cy="-73.09" r="1.5"/>
<circle cx="55.02" cy="106.16" r="1.5"/>
<circle cx="57.95" cy="105.87" r="1.5"/>
<circle cx="-41.84" cy="126.33" r="1.5"/>
<circle cx="-37.76" cy="125.14" r="1.5"/>
<circle cx="-42.96" cy="125.54" r="1.5"/>
<circle cx="-46.45" cy="126.59" r="1.5"/>
<circle cx="49.05" cy="107.25" r="1.5"/>
<circle cx="45.70" cy="107.65" r="1.5"/>
<circle cx="-51.44" cy="127.67" r="1.5"/>
<circle cx="-54.55" cy="128.66" r="1.5"/>
<circle cx="36.11" cy="108.72" r="1.5"/>
<circle cx="32.54" cy="109.24" r="1.5"/>
<circle cx="62.19" cy="104.91" r="1.5"/>
<circle cx="64.71" cy="104.70" r="1.5"/>
<circle cx="-31.48" cy="123.39" r="1.5"/>
<circle cx="-27.27" cy="122.25" r="1.5"/>
<circle cx="131.58" cy="18.86" r="1.5"/>
<circle cx="131.58" cy="18.86" r="1.5"/>
<circle cx="131.58" cy="18.86" r="1.5"/>
<circle cx="131.58" cy="18.86" r="1.5"/>
<circle cx="130.56" cy="19.34" r="1.5"/>
<circle cx="130.56" cy="19.34" r="1.5"/>
<circle cx="130.56" cy="19.34" r="1.5"/>
<circle cx="130.56" cy="19.34" r="1.5"/>
<circle cx="142.59" cy="13.66" r="1.5"/>
<circle cx="45.83" cy="54.73" r="1.5"/>
<circle cx="58.66" cy="49.83" r="1.5"/>
<circle cx="-71.14" cy="92.53" r="1.5"/>
<circle cx="-52.31" cy="87.28" r="1.5"/>
<circle cx="5.25" cy="75.53" r="1.5"/>
<circle cx="24.16" cy="67.68" r="1.5"/>
<circle cx="-62.92" cy="100.81" r="1.5"/>
<circle cx="-62.92" cy="100.81" r="1.5"/>
<circle cx="22.67" cy="-114.38" r="1.5"/>
<circle cx="20.11" cy="-114.06" r="1.5"/>
<circle cx="-62.68" cy="-110.96" r="1.5"/>
<circle cx="-66.45" cy="-111.11" r="1.5"/>
<circle cx="5.36" cy="-113.77" r="1.5"/>
<circle cx="1.81" cy="-113.45" r="1.5"/>
<circle cx="-46.04" cy="-107.50" r="1.5"/>
<circle cx="-46.04" cy="-107.50" r="1.5"/>
</g>
</svg>